<?xml version="1.0" encoding="UTF-8" standalone="no"?>
<!-- Created with Inkscape (http://www.inkscape.org/) -->

<svg
   xmlns:dc="http://purl.org/dc/elements/1.1/"
   xmlns:cc="http://creativecommons.org/ns#"
   xmlns:rdf="http://www.w3.org/1999/02/22-rdf-syntax-ns#"
   xmlns:svg="http://www.w3.org/2000/svg"
   xmlns="http://www.w3.org/2000/svg"
   xmlns:sodipodi="http://sodipodi.sourceforge.net/DTD/sodipodi-0.dtd"
   xmlns:inkscape="http://www.inkscape.org/namespaces/inkscape"
   width="6.0060415mm"
   height="5.1860447mm"
   viewBox="0 0 6.0060415 5.1860447"
   version="1.1"
   id="svg8"
   inkscape:version="0.92.3 (2405546, 2018-03-11)"
   sodipodi:docname="quotation.svg">
  <defs
     id="defs2" />
  <sodipodi:namedview
     id="base"
     pagecolor="#ffffff"
     bordercolor="#666666"
     borderopacity="1.0"
     inkscape:pageopacity="0.0"
     inkscape:pageshadow="2"
     inkscape:zoom="5.6"
     inkscape:cx="-20.530264"
     inkscape:cy="9.9329348"
     inkscape:document-units="mm"
     inkscape:current-layer="text817"
     showgrid="false"
     fit-margin-top="0"
     fit-margin-left="0"
     fit-margin-right="0"
     fit-margin-bottom="0"
     inkscape:window-width="1920"
     inkscape:window-height="1017"
     inkscape:window-x="-8"
     inkscape:window-y="-8"
     inkscape:window-maximized="1" />
  <metadata
     id="metadata5">
    <rdf:RDF>
      <cc:Work
         rdf:about="">
        <dc:format>image/svg+xml</dc:format>
        <dc:type
           rdf:resource="http://purl.org/dc/dcmitype/StillImage" />
        <dc:title></dc:title>
      </cc:Work>
    </rdf:RDF>
  </metadata>
  <g
     inkscape:label="Capa 1"
     inkscape:groupmode="layer"
     id="layer1"
     transform="translate(-24.817101,-105.4971)">
    <g
       aria-label="“"
       style="font-style:normal;font-variant:normal;font-weight:bold;font-stretch:normal;font-size:3.17499995px;line-height:0;font-family:'Open Sans';-inkscape-font-specification:'Open Sans, Bold';font-variant-ligatures:normal;font-variant-caps:normal;font-variant-numeric:normal;font-feature-settings:normal;text-align:start;letter-spacing:0px;word-spacing:0px;writing-mode:lr-tb;text-anchor:start;fill:#000000;fill-opacity:1;stroke:none;stroke-width:0.26458332"
       id="text817">
      <g
         aria-label="“"
         style="font-style:normal;font-variant:normal;font-weight:bold;font-stretch:normal;font-size:31.75px;line-height:0;font-family:Inter;-inkscape-font-specification:'Inter Bold';font-variant-ligatures:normal;font-variant-caps:normal;font-variant-numeric:normal;font-feature-settings:normal;text-align:start;letter-spacing:0px;word-spacing:0px;writing-mode:lr-tb;text-anchor:start;fill:#ededed;fill-opacity:1;stroke:none;stroke-width:0.07000434"
         id="text816"
         transform="matrix(0.64817458,0,0,0.64817458,16.571113,40.043619)">
        <path
           d="m 19.955949,108.98225 c -0.8255,0 -1.449916,-0.33867 -1.87325,-1.016 -0.359833,-0.5715 -0.53975,-1.27 -0.53975,-2.0955 0,-1.05833 0.264584,-2.01083 0.79375,-2.8575 0.550334,-0.84667 1.375834,-1.524 2.4765,-2.032 l 0.28575,0.5715 c -0.656166,0.27517 -1.227666,0.70908 -1.7145,1.30175 -0.465666,0.59267 -0.6985,1.19592 -0.6985,1.80975 0,0.254 0.03175,0.47625 0.09525,0.66675 0.338667,-0.27517 0.73025,-0.41275 1.17475,-0.41275 0.5715,0 1.04775,0.1905 1.42875,0.5715 0.402167,0.35983 0.60325,0.84667 0.60325,1.4605 0,0.5715 -0.201083,1.05833 -0.60325,1.4605 -0.381,0.381 -0.85725,0.5715 -1.42875,0.5715 z m -4.821086,0 c -0.8255,0 -1.449917,-0.33867 -1.87325,-1.016 -0.359833,-0.5715 -0.53975,-1.27 -0.53975,-2.0955 0,-1.05833 0.264583,-2.01083 0.79375,-2.8575 0.550333,-0.84667 1.375833,-1.524 2.4765,-2.032 l 0.28575,0.5715 c -0.656167,0.27517 -1.227667,0.70908 -1.7145,1.30175 -0.465667,0.59267 -0.6985,1.19592 -0.6985,1.80975 0,0.254 0.03175,0.47625 0.09525,0.66675 0.338667,-0.27517 0.73025,-0.41275 1.17475,-0.41275 0.5715,0 1.04775,0.1905 1.42875,0.5715 0.402167,0.35983 0.60325,0.84667 0.60325,1.4605 0,0.5715 -0.201083,1.05833 -0.60325,1.4605 -0.381,0.381 -0.85725,0.5715 -1.42875,0.5715 z"
           style="font-style:normal;font-variant:normal;font-weight:normal;font-stretch:normal;font-family:'Playfair Display';-inkscape-font-specification:'Playfair Display';letter-spacing:-0.80962497px;word-spacing:-0.45772916px;fill:#ededed;fill-opacity:1;stroke-width:0.07000434"
           id="path818"
           inkscape:connector-curvature="0"
           sodipodi:nodetypes="scsccccscscsssccsccccscscssc" />
      </g>
    </g>
  </g>
</svg>
